<?xml version="1.0" standalone="no"?>
<!DOCTYPE svg PUBLIC "-//W3C//DTD SVG 20010904//EN"
 "http://www.w3.org/TR/2001/REC-SVG-20010904/DTD/svg10.dtd">
<svg version="1.0" xmlns="http://www.w3.org/2000/svg"
 width="512.000000pt" height="512.000000pt" viewBox="0 0 512.000000 512.000000"
 preserveAspectRatio="xMidYMid meet">
<g transform="translate(0.000000,512.000000) scale(0.100000,-0.100000)"
fill="#000000" stroke="none">
<path d="M2505 4775 l-25 -24 0 -271 0 -271 25 -24 c15 -16 36 -25 55 -25 19
0 40 9 55 25 l25 24 0 271 0 271 -25 24 c-15 16 -36 25 -55 25 -19 0 -40 -9
-55 -25z m92 -24 c8 -13 12 -97 13 -275 1 -275 -1 -286 -50 -286 -48 0 -50 11
-50 290 0 194 3 264 13 275 18 20 60 18 74 -4z"/>
<path d="M2536 4732 c-3 -4 4 -9 15 -9 23 -2 25 3 4 10 -8 4 -16 3 -19 -1z"/>
<path d="M2540 4225 c5 -7 6 -16 2 -20 -4 -5 -1 -5 6 -1 7 4 9 12 6 18 -5 7
-1 9 9 5 9 -3 19 -3 21 2 3 4 -8 7 -24 7 -21 0 -27 -3 -20 -11z"/>
<path d="M1503 4344 c-20 -20 -24 -32 -20 -58 5 -30 152 -292 184 -328 26 -29
87 -24 112 8 12 15 21 36 21 47 0 25 -155 303 -187 335 -30 30 -77 29 -110 -4z
m95 -8 c3 -3 -1 -6 -9 -7 -8 0 -3 -4 9 -10 13 -5 22 -14 20 -21 -3 -7 7 -23
21 -36 14 -13 19 -20 11 -16 -15 8 14 -33 35 -48 7 -5 7 -8 0 -8 -5 0 -4 -4 3
-9 7 -4 14 -18 15 -29 1 -12 4 -22 8 -22 4 0 21 -28 38 -62 l31 -62 -20 -21
c-22 -24 -43 -25 -78 -6 -19 10 -21 15 -11 33 6 11 7 18 2 15 -5 -3 -15 -2
-23 3 -12 7 -11 13 5 32 l20 23 -22 -19 c-13 -11 -23 -16 -23 -13 0 18 -2 23
-19 42 -24 27 -37 50 -23 42 6 -5 8 1 5 14 -4 13 -8 16 -13 10 -4 -7 -11 -1
-18 14 -7 15 -9 31 -6 37 4 6 3 8 -3 5 -16 -10 -57 71 -44 87 6 7 7 17 3 21
-4 5 1 5 10 2 10 -3 17 -3 17 1 -1 4 -1 10 0 13 1 7 50 3 59 -5z"/>
<path d="M1695 3990 c5 -8 42 -6 50 1 2 3 -8 5 -25 5 -16 0 -27 -3 -25 -6z"/>
<path d="M3512 4353 c-29 -25 -192 -313 -192 -339 0 -12 9 -33 21 -48 16 -20
29 -26 59 -26 46 0 56 12 142 160 109 187 114 205 73 245 -29 30 -74 33 -103
8z m91 -22 c6 -6 7 -11 3 -11 -5 0 -3 -7 4 -15 9 -11 7 -22 -11 -54 -12 -22
-27 -37 -32 -34 -6 3 -7 1 -3 -5 9 -14 -25 -83 -37 -75 -6 4 -7 1 -2 -6 4 -7
-1 -22 -13 -34 -12 -12 -21 -26 -21 -32 -1 -5 -9 -19 -18 -30 -10 -11 -18 -26
-18 -33 0 -21 -50 -46 -71 -37 -11 5 -23 7 -27 6 -5 -1 -6 3 -3 8 4 5 2 13 -4
16 -8 5 -8 11 0 20 6 7 10 17 9 21 -3 16 23 74 33 74 5 0 6 -5 2 -12 -4 -7 -3
-8 4 -4 6 4 9 13 5 21 -3 8 0 15 6 15 6 0 10 3 10 8 -3 20 2 32 13 26 6 -4 8
-3 5 3 -6 10 21 71 43 98 15 17 30 20 30 4 0 -5 -5 -7 -12 -3 -7 5 -8 3 -3 -5
5 -9 10 -10 18 -2 8 8 8 14 -1 23 -15 15 -16 31 0 22 7 -5 8 -3 4 5 -18 29 60
49 87 22z"/>
<path d="M3388 3973 c6 -2 18 -2 25 0 6 3 1 5 -13 5 -14 0 -19 -2 -12 -5z"/>
<path d="M1810 3946 c0 -2 7 -7 16 -10 8 -3 12 -2 9 4 -6 10 -25 14 -25 6z"/>
<path d="M635 3695 c-30 -29 -33 -74 -7 -103 24 -28 453 -272 479 -272 11 0
32 9 47 21 35 27 37 86 4 116 -44 38 -447 263 -473 263 -14 0 -37 -11 -50 -25z
m65 -6 c0 -5 3 -8 8 -6 10 7 73 -29 65 -37 -3 -3 0 -6 9 -6 8 0 23 -9 33 -20
15 -16 21 -18 33 -7 9 6 13 7 9 1 -3 -6 13 -18 39 -29 24 -10 42 -20 39 -23
-2 -3 24 -18 58 -34 34 -16 75 -41 91 -56 16 -15 26 -20 22 -12 -5 9 -2 8 7
-2 8 -10 16 -15 19 -13 3 3 11 -8 18 -24 13 -32 6 -55 -15 -47 -7 2 -12 -2
-11 -11 0 -10 -8 -17 -21 -18 -12 -1 -20 1 -18 5 2 4 -14 13 -35 20 -22 7 -40
17 -40 22 0 4 -5 8 -12 8 -6 0 -19 6 -27 14 -9 8 -22 16 -30 18 -8 2 -23 10
-33 18 -10 8 -22 15 -26 15 -18 1 -61 38 -55 48 4 7 0 8 -12 3 -12 -4 -26 1
-43 16 -14 13 -22 17 -18 10 7 -11 4 -11 -15 0 -45 25 -68 45 -61 53 4 5 -1 6
-10 2 -34 -12 -39 63 -5 86 26 19 37 21 37 6z"/>
<path d="M702 3574 c10 -10 20 -16 22 -13 3 3 -5 11 -17 18 -21 13 -21 12 -5
-5z"/>
<path d="M846 3511 c-3 -4 2 -16 12 -24 16 -15 18 -15 19 6 2 17 0 19 -7 7 -9
-14 -14 -7 -11 13 1 10 -7 9 -13 -2z"/>
<path d="M4192 3595 c-118 -68 -222 -131 -233 -141 -30 -27 -26 -87 7 -113 15
-12 36 -21 48 -21 26 0 454 243 479 272 39 46 1 129 -60 127 -17 0 -113 -50
-241 -124z m266 89 c22 -15 30 -58 14 -79 -18 -26 -58 -42 -82 -34 -22 8 -23
7 -8 -4 15 -12 15 -14 -4 -26 -16 -10 -19 -10 -12 1 4 7 -4 4 -17 -7 -45 -38
-85 -55 -97 -43 -9 9 -10 6 -7 -10 2 -12 1 -21 -3 -20 -13 3 -112 -49 -105
-56 3 -3 -1 -6 -10 -6 -9 0 -17 -4 -17 -8 0 -8 -67 -41 -97 -47 -13 -3 -53 40
-53 57 0 6 8 20 19 33 14 19 21 21 30 12 10 -9 11 -8 5 7 -5 13 -4 17 4 12 7
-4 12 -3 12 3 0 5 18 17 40 27 22 10 40 21 40 26 0 4 7 4 17 1 11 -4 14 -3 9
5 -4 7 3 14 18 18 14 3 30 12 37 20 6 8 20 14 30 14 11 0 19 4 19 10 0 10 80
50 100 50 6 0 8 5 4 11 -4 7 -1 10 7 7 7 -2 22 4 33 13 10 10 23 16 28 13 4
-3 8 0 8 5 0 15 12 14 38 -5z"/>
<path d="M4405 3591 c-3 -5 -2 -12 3 -15 5 -3 9 1 9 9 0 17 -3 19 -12 6z"/>
<path d="M4156 3528 c3 -4 11 -5 19 -1 21 7 19 12 -4 10 -11 0 -18 -5 -15 -9z"/>
<path d="M4057 3484 c-3 -3 -3 -13 0 -22 5 -11 3 -13 -8 -7 -8 5 -11 4 -6 0 4
-5 14 -10 22 -11 11 -2 12 2 5 16 -7 13 -6 20 3 23 7 3 7 6 1 6 -6 1 -13 -2
-17 -5z"/>
<path d="M2405 3669 c-154 -22 -355 -101 -485 -189 -82 -56 -189 -158 -251
-239 -75 -98 -163 -285 -196 -416 -24 -97 -27 -128 -27 -265 0 -214 32 -344
132 -533 122 -232 341 -422 594 -517 127 -47 227 -64 383 -64 86 0 176 5 210
12 343 73 631 287 784 582 174 336 174 706 -1 1042 -215 413 -683 653 -1143
587z m385 -38 c69 -14 170 -50 193 -69 14 -13 17 -13 17 -1 1 9 7 6 19 -8 21
-25 36 -31 26 -10 -4 6 1 3 10 -8 9 -11 18 -19 20 -18 18 8 121 -58 109 -70
-3 -3 3 -4 13 -3 10 0 17 -5 15 -12 -1 -8 2 -11 7 -8 5 4 12 2 16 -4 4 -6 11
-7 17 -4 6 4 9 3 6 -2 -3 -5 6 -20 20 -34 13 -14 21 -18 17 -10 -8 15 43 -36
80 -81 11 -13 31 -37 45 -54 l25 -30 -27 17 c-25 16 -27 16 -40 0 -12 -15 -11
-16 5 -3 15 12 21 9 18 -11 0 -4 5 -5 12 -2 17 6 69 -34 62 -47 -4 -5 -1 -9 5
-9 6 0 8 -4 5 -10 -3 -5 -2 -10 3 -10 4 0 17 -17 27 -37 28 -56 29 -56 15 -48
-9 5 -11 4 -6 -4 4 -6 11 -9 16 -6 11 7 23 -31 15 -45 -4 -6 -3 -9 2 -8 4 2
10 -1 12 -7 2 -5 11 -26 21 -45 10 -19 16 -50 15 -69 -2 -19 1 -28 5 -22 5 9
9 8 14 -4 3 -10 1 -24 -5 -32 -7 -7 -9 -16 -5 -20 3 -3 7 0 7 8 1 8 6 -4 11
-26 25 -97 17 -420 -12 -475 -4 -8 -10 -28 -13 -45 -7 -43 -54 -145 -75 -162
-9 -8 -11 -12 -4 -8 17 9 15 0 -10 -45 -13 -22 -30 -40 -38 -41 -10 0 -11 -2
-3 -6 8 -3 3 -13 -15 -30 -15 -14 -19 -20 -9 -13 9 7 17 8 17 3 0 -13 -49 -35
-61 -27 -5 3 -9 2 -8 -3 4 -21 -2 -24 -18 -12 -16 13 -17 12 -5 -3 13 -16 15
-16 40 0 22 13 18 6 -16 -36 -24 -28 -50 -52 -58 -52 -8 0 -14 -5 -14 -11 0
-5 5 -7 12 -3 7 4 8 3 4 -4 -4 -7 -14 -12 -22 -12 -8 0 -14 -4 -14 -10 0 -5
-16 -16 -35 -24 -19 -8 -35 -18 -35 -21 0 -3 9 -1 19 5 33 17 38 11 6 -9 -16
-11 -48 -35 -70 -54 -29 -26 -43 -33 -52 -25 -15 12 -18 32 -4 23 5 -3 12 -1
15 4 4 5 -1 8 -9 7 -23 -3 -29 -14 -16 -30 9 -11 5 -18 -24 -35 -20 -12 -41
-18 -47 -15 -7 5 -8 2 -3 -6 6 -10 4 -12 -9 -7 -9 4 -15 3 -12 -1 3 -4 -4 -14
-16 -21 -11 -7 -17 -8 -13 -2 9 15 -5 14 -24 -2 -17 -15 -101 -45 -137 -51
-11 -2 -27 -7 -34 -11 -9 -6 -11 -4 -4 6 5 9 -2 7 -21 -5 -52 -34 -339 -34
-477 0 -5 1 -15 2 -24 3 -9 0 -12 6 -8 13 4 6 3 8 -3 5 -14 -9 -113 21 -134
39 -18 17 -33 19 -24 3 4 -6 -2 -5 -13 2 -12 7 -18 17 -15 23 3 5 1 6 -5 2
-11 -7 -42 7 -76 34 -10 8 -20 13 -23 11 -3 -2 -28 14 -56 35 -28 22 -56 38
-62 36 -5 -1 -1 5 9 13 11 8 14 15 7 15 -7 0 -10 4 -6 9 3 5 1 12 -4 16 -6 3
-8 -3 -6 -15 2 -11 2 -20 0 -20 -13 0 -35 14 -35 22 0 5 5 6 12 2 7 -4 8 -3 4
5 -4 6 -11 9 -15 7 -4 -3 -18 5 -32 17 -13 12 -20 19 -15 15 18 -14 29 -8 16
7 -7 8 -18 15 -24 15 -16 0 -101 101 -100 117 1 7 -2 11 -6 8 -4 -3 -13 2 -20
10 -7 8 -9 15 -4 15 5 0 4 4 -2 8 -16 11 -57 82 -47 82 4 0 0 5 -10 11 -9 6
-15 14 -12 19 3 5 1 11 -5 15 -5 3 -10 12 -10 18 0 7 4 6 11 -3 9 -12 10 -12
5 4 -4 10 -2 24 4 31 7 8 5 12 -5 12 -7 0 -13 -3 -12 -6 1 -3 -2 -6 -8 -6 -10
-1 -31 48 -41 94 -3 13 -10 33 -15 44 -9 15 -8 18 3 11 10 -6 11 -5 1 7 -6 8
-13 32 -15 54 -1 22 -6 43 -10 46 -9 6 -11 245 -3 309 10 73 25 121 36 114 7
-4 7 1 0 15 -8 15 -9 21 -1 21 6 0 9 4 5 10 -3 5 2 26 11 47 9 21 17 45 19 53
1 8 8 14 13 13 6 -2 9 4 6 12 -9 22 67 159 78 143 7 -9 8 -6 5 10 -6 25 2 28
23 10 8 -7 7 -4 -3 8 -16 20 -16 22 3 39 11 10 17 22 13 28 -3 6 -1 7 6 3 7
-4 18 5 29 23 9 17 29 37 44 43 15 7 23 15 17 19 -6 3 -3 12 7 20 12 9 15 10
10 2 -4 -7 -2 -13 3 -13 6 0 11 6 11 14 0 16 48 77 58 73 9 -3 53 29 47 34 -2
3 5 5 16 6 11 1 17 -2 14 -8 -10 -15 2 -10 16 8 12 14 12 16 0 9 -9 -6 -12 -5
-10 3 3 7 7 11 9 10 3 -1 24 10 48 25 23 15 48 24 55 20 7 -4 9 -4 5 1 -14 15
88 59 207 89 11 3 43 11 72 19 30 8 50 10 46 4 -4 -6 -1 -7 8 -1 36 23 259 20
389 -5z"/>
<path d="M2608 3633 c7 -3 16 -2 19 1 4 3 -2 6 -13 5 -11 0 -14 -3 -6 -6z"/>
<path d="M2115 3551 c-3 -5 -2 -12 3 -15 5 -3 9 1 9 9 0 17 -3 19 -12 6z"/>
<path d="M2470 3538 c-47 -3 -105 -13 -130 -22 -24 -8 -56 -13 -70 -10 -22 4
-22 3 -5 -5 11 -5 15 -10 8 -10 -6 -1 -19 -4 -29 -8 -13 -5 -15 -3 -9 8 8 12
6 12 -8 0 -9 -7 -24 -11 -32 -7 -9 3 -13 2 -10 -4 3 -6 2 -10 -3 -10 -5 0 -26
-11 -47 -25 -20 -15 -40 -24 -43 -20 -3 3 1 5 8 5 7 0 11 3 7 6 -3 4 -17 -3
-31 -14 -14 -10 -22 -23 -18 -26 4 -4 -7 -6 -23 -4 -18 2 -30 -2 -31 -9 -1 -7
-2 -17 -3 -23 0 -5 -9 -7 -18 -4 -14 5 -15 4 -5 -4 11 -7 7 -11 -15 -17 -15
-5 -32 -7 -36 -6 -5 1 -6 -3 -2 -9 3 -5 -10 -19 -29 -31 -20 -12 -36 -23 -36
-26 0 -2 5 -1 11 2 6 4 5 -2 -2 -14 -10 -14 -15 -17 -21 -8 -6 9 -8 9 -8 -1 0
-15 -40 -70 -40 -56 0 5 -5 1 -11 -9 -6 -10 -15 -14 -22 -10 -9 5 -8 2 0 -9
11 -12 10 -18 -5 -32 -10 -9 -22 -13 -26 -9 -4 4 -4 -1 0 -11 5 -13 4 -17 -4
-12 -6 3 -14 1 -18 -5 -4 -8 -3 -9 4 -5 7 4 12 2 12 -3 0 -6 -9 -16 -19 -23
-11 -6 -17 -18 -13 -26 3 -10 1 -13 -6 -8 -7 4 -12 1 -12 -9 0 -8 -7 -32 -16
-53 -10 -20 -19 -46 -21 -57 -2 -11 -9 -24 -15 -30 -8 -7 -9 -6 -3 4 5 9 4 12
-3 7 -6 -3 -9 -22 -7 -41 2 -23 -1 -33 -8 -28 -5 3 -8 2 -5 -3 3 -5 0 -40 -8
-79 -17 -91 -17 -272 0 -355 8 -36 12 -68 9 -72 -2 -5 1 -8 7 -8 6 0 8 -5 5
-10 -4 -6 1 -22 10 -37 9 -14 12 -22 6 -19 -7 5 -9 1 -5 -8 3 -9 9 -16 13 -16
4 0 15 -24 26 -52 10 -29 31 -71 47 -92 15 -22 28 -44 28 -50 0 -5 -6 -2 -13
8 -12 16 -13 16 -13 -2 0 -14 6 -19 18 -17 19 4 53 -47 40 -60 -4 -3 -2 -5 4
-3 6 2 31 -17 55 -42 24 -25 62 -60 84 -78 22 -17 31 -29 20 -25 -11 3 -17 3
-14 -1 4 -4 17 -9 29 -11 27 -5 62 -34 54 -46 -3 -5 3 -6 12 -2 11 4 15 3 10
-5 -4 -7 8 -15 34 -22 25 -7 38 -15 34 -22 -4 -7 -3 -8 4 -4 14 9 72 -21 72
-37 0 -8 3 -8 9 2 7 11 14 10 37 -5 15 -11 29 -18 31 -16 2 1 9 2 16 1 6 0 3
-4 -8 -9 -19 -8 -19 -9 2 -9 12 -1 30 -4 40 -7 15 -5 15 -4 3 5 -8 6 -10 11
-5 11 6 0 15 -4 20 -9 35 -31 299 -40 422 -15 43 9 86 17 95 17 9 1 14 5 11
10 -3 6 8 8 25 5 18 -2 28 0 25 5 -3 5 5 6 18 2 19 -5 21 -4 9 4 -8 6 -10 11
-5 12 6 1 15 2 20 3 6 1 25 9 43 19 18 10 38 15 44 11 7 -5 8 -3 3 6 -6 10 -3
12 13 8 12 -4 20 -2 16 3 -3 5 0 9 6 9 6 0 8 5 5 11 -4 6 4 9 21 7 16 -2 29 2
29 7 0 6 10 22 23 35 13 14 22 19 20 11 -2 -7 5 -15 15 -16 14 -3 16 -1 7 10
-9 11 -6 20 17 39 15 14 32 26 36 26 5 0 5 5 1 12 -5 7 -2 9 9 5 9 -3 21 1 29
11 12 15 11 16 -4 3 -29 -22 -20 -1 12 29 16 15 32 25 36 21 4 -3 4 -1 1 5 -4
6 3 20 14 30 19 17 20 17 13 -2 -5 -15 -4 -16 4 -4 6 8 8 18 5 22 -7 12 17 39
28 32 5 -3 6 3 2 12 -4 12 -3 15 5 10 8 -5 10 -1 5 10 -4 11 -2 15 4 11 6 -4
13 6 16 23 4 16 17 47 30 67 14 21 28 53 32 71 3 18 10 30 15 27 4 -3 6 4 3
15 -3 12 0 20 6 20 7 0 9 5 5 11 -3 6 -2 21 4 32 41 84 40 442 -1 495 -5 7 -7
15 -3 19 3 3 6 0 6 -7 0 -7 3 -11 6 -7 4 3 -4 22 -16 42 -12 20 -20 44 -17 55
3 14 1 17 -11 13 -9 -4 -13 -2 -9 5 4 6 -2 26 -14 46 -11 19 -17 41 -13 47 4
8 3 9 -5 5 -7 -5 -13 3 -17 23 -4 18 -11 28 -17 24 -6 -4 -8 0 -4 11 5 11 3
15 -5 10 -8 -5 -9 -2 -5 10 4 9 3 15 -2 12 -5 -3 -21 11 -37 32 -15 20 -21 31
-12 24 12 -9 18 -10 23 -2 4 6 4 14 1 17 -3 4 -6 1 -6 -6 0 -7 -5 -9 -12 -4
-7 4 -16 8 -20 8 -12 0 -47 52 -40 59 3 4 -1 4 -11 0 -19 -7 -23 5 -7 24 7 9
7 9 -2 2 -13 -11 -35 -14 -25 -4 3 4 -5 15 -18 26 -14 11 -23 24 -20 29 4 5
-1 6 -10 3 -12 -5 -16 -2 -13 9 2 9 -1 16 -7 15 -5 0 -9 -5 -7 -12 2 -6 -8 0
-22 13 -14 13 -24 28 -23 34 1 5 -5 12 -13 14 -13 4 -13 3 0 -6 9 -7 10 -11 3
-11 -6 0 -15 5 -18 10 -4 6 -36 24 -71 41 -35 17 -62 35 -59 40 4 5 -2 6 -11
2 -11 -4 -15 -3 -10 5 3 6 1 14 -5 18 -8 4 -9 3 -5 -4 9 -15 1 -15 -26 -1 -12
7 -18 7 -14 1 4 -6 -2 -8 -15 -5 -16 5 -18 8 -7 15 9 6 5 8 -12 6 -14 -1 -59
5 -100 14 -92 21 -169 25 -280 16z m323 -47 c169 -44 307 -123 433 -246 135
-132 216 -270 266 -453 31 -111 31 -353 0 -464 -96 -350 -350 -604 -700 -700
-63 -17 -105 -21 -232 -21 -127 0 -169 4 -232 21 -181 50 -319 130 -453 265
-49 50 -94 90 -98 89 -5 -1 -6 2 -2 8 3 5 -3 23 -14 39 -38 53 -111 215 -133
296 -31 114 -31 354 0 468 44 162 122 303 231 419 144 154 327 254 534 294
100 19 299 12 400 -15z"/>
<path d="M2349 3427 c-44 -34 -47 -89 -7 -127 47 -44 128 -6 128 60 0 60 -76
102 -121 67z m55 -23 c9 -8 14 -19 11 -24 -3 -5 1 -10 7 -13 7 -2 10 -8 6 -12
-9 -10 -40 14 -33 25 3 5 0 12 -6 16 -8 4 -9 3 -5 -4 6 -11 -5 -16 -26 -13 -4
0 -4 -7 -1 -17 6 -15 5 -15 -10 -3 -13 10 -14 18 -6 32 11 21 24 27 14 7 -3
-7 0 -5 7 5 16 21 22 21 42 1z m34 -6 c1 -7 3 -25 6 -40 2 -16 0 -28 -5 -28
-6 0 -7 -5 -3 -12 4 -7 3 -8 -4 -4 -9 5 -9 13 -2 27 7 13 7 25 1 38 -6 10 -7
21 -4 25 9 8 9 8 11 -6z m-51 -42 c-3 -7 0 -13 6 -12 7 0 13 -2 15 -6 7 -22 0
-34 -19 -34 -19 0 -19 1 -3 13 16 12 15 13 -12 7 -24 -4 -33 -2 -38 11 -5 13
-2 16 9 11 9 -3 18 1 21 9 4 8 11 15 16 15 6 0 8 -6 5 -14z"/>
<path d="M2080 3340 c-8 -5 -10 -10 -5 -10 6 0 17 5 25 10 8 5 11 10 5 10 -5
0 -17 -5 -25 -10z"/>
<path d="M2140 3333 c-69 -27 -236 -175 -296 -263 -43 -62 -99 -175 -119 -238
-14 -43 -15 -57 -5 -81 14 -34 56 -55 93 -46 34 9 43 21 67 90 48 140 162 285
289 369 54 35 71 52 76 76 13 59 -50 114 -105 93z m57 -26 c9 0 10 -4 2 -13
-7 -8 -6 -14 2 -20 8 -4 9 -3 5 4 -4 7 -3 12 2 12 5 0 12 -10 15 -22 9 -31
-51 -92 -72 -75 -12 9 -13 9 -7 -1 7 -12 -18 -46 -36 -48 -4 -1 -13 -2 -19 -3
-5 0 -8 -5 -4 -10 3 -5 -4 -12 -15 -16 -11 -4 -18 -11 -15 -16 3 -5 -1 -6 -9
-3 -9 3 -14 10 -11 14 6 10 -22 7 -32 -4 -4 -4 -1 -6 7 -4 9 2 15 -5 16 -19 1
-12 -3 -20 -7 -17 -5 3 -13 -5 -18 -18 -5 -13 -17 -30 -27 -38 -27 -23 -86
-119 -79 -130 4 -6 -1 -13 -9 -16 -9 -3 -14 -10 -11 -14 3 -4 -2 -10 -10 -14
-8 -3 -15 -10 -15 -16 0 -6 6 -8 13 -5 6 4 5 1 -3 -7 -8 -7 -15 -24 -15 -38 0
-29 -38 -47 -80 -36 -21 5 -25 11 -19 24 4 9 6 35 5 57 -2 54 16 87 43 79 15
-4 17 -3 7 4 -11 8 -10 14 4 38 l18 29 -26 -30 c-15 -16 -26 -24 -27 -17 0 6
3 12 8 12 4 0 16 17 27 38 11 20 26 43 33 51 8 8 18 25 23 38 6 15 14 22 21
17 7 -4 10 -4 6 1 -10 11 11 47 23 40 5 -4 9 -1 9 5 0 6 5 8 12 4 7 -4 8 -3 4
4 -4 6 -2 21 4 32 9 16 14 18 29 8 11 -7 18 -20 15 -31 -2 -11 0 -17 3 -13 13
13 11 35 -3 47 -13 10 -10 17 17 41 17 16 37 27 45 24 7 -3 11 0 8 7 -2 7 15
22 38 35 46 24 84 30 72 10 -5 -7 -3 -8 6 -3 10 6 9 11 -6 23 -18 14 -18 14 1
7 11 -4 26 -8 32 -8z"/>
<path d="M2056 3212 c-3 -5 1 -9 9 -9 8 0 12 4 9 9 -3 4 -7 8 -9 8 -2 0 -6 -4
-9 -8z"/>
<path d="M2166 3203 c-6 -14 -5 -15 5 -6 7 7 10 15 7 18 -3 3 -9 -2 -12 -12z"/>
<path d="M1947 3139 c7 -7 15 -10 18 -7 3 3 -2 9 -12 12 -14 6 -15 5 -6 -5z"/>
<path d="M1970 3025 c-8 -10 -17 -12 -24 -6 -8 7 -12 4 -12 -9 0 -14 4 -16 16
-10 18 9 46 40 37 40 -2 0 -10 -7 -17 -15z"/>
<path d="M1816 2923 c-6 -14 -5 -15 5 -6 7 7 10 15 7 18 -3 3 -9 -2 -12 -12z"/>
<path d="M2039 3313 c-13 -16 -12 -17 4 -4 9 7 17 15 17 17 0 8 -8 3 -21 -13z"/>
<path d="M2270 3301 c0 -6 4 -13 10 -16 6 -3 7 1 4 9 -7 18 -14 21 -14 7z"/>
<path d="M3068 3303 c6 -2 9 -10 6 -15 -4 -7 -2 -8 5 -4 13 9 5 26 -12 25 -9
0 -8 -2 1 -6z"/>
<path d="M1955 3270 c-3 -5 -4 -10 0 -10 3 0 0 -10 -6 -22 -8 -17 -8 -20 0
-12 6 6 13 20 16 32 4 23 0 28 -10 12z"/>
<path d="M2311 3234 c0 -11 3 -14 6 -6 3 7 2 16 -1 19 -3 4 -6 -2 -5 -13z"/>
<path d="M2292 3220 c0 -14 2 -19 5 -12 2 6 2 18 0 25 -3 6 -5 1 -5 -13z"/>
<path d="M1859 3183 c0 -5 -2 -16 -4 -26 -3 -14 -1 -16 10 -7 8 6 11 18 8 26
-6 15 -13 19 -14 7z"/>
<path d="M2135 3100 c-3 -6 1 -7 9 -4 18 7 21 14 7 14 -6 0 -13 -4 -16 -10z"/>
<path d="M3320 3079 c0 -5 5 -7 10 -4 6 3 10 8 10 11 0 2 -4 4 -10 4 -5 0 -10
-5 -10 -11z"/>
<path d="M2131 3071 c-8 -5 -9 -11 -3 -15 5 -3 12 1 16 9 6 17 6 18 -13 6z"/>
<path d="M1777 3059 c7 -7 15 -10 18 -7 3 3 -2 9 -12 12 -14 6 -15 5 -6 -5z"/>
<path d="M2076 3058 c3 -5 10 -6 15 -3 13 9 11 12 -6 12 -8 0 -12 -4 -9 -9z"/>
<path d="M3335 3060 c-3 -5 -1 -10 4 -10 6 0 11 5 11 10 0 6 -2 10 -4 10 -3 0
-8 -4 -11 -10z"/>
<path d="M2044 2991 c0 -11 5 -17 13 -14 10 4 11 9 2 19 -15 18 -15 18 -15 -5z"/>
<path d="M3366 2947 c3 -10 9 -15 12 -12 3 3 0 11 -7 18 -10 9 -11 8 -5 -6z"/>
<path d="M3380 2909 c0 -5 5 -7 10 -4 6 3 10 8 10 11 0 2 -4 4 -10 4 -5 0 -10
-5 -10 -11z"/>
<path d="M3393 2875 c-3 -9 -3 -18 -1 -21 3 -3 8 4 11 16 6 23 -1 27 -10 5z"/>
<path d="M3403 2790 c0 -25 2 -35 4 -22 2 12 2 32 0 45 -2 12 -4 2 -4 -23z"/>
<path d="M3446 2718 c3 -4 11 -5 19 -1 21 7 19 12 -4 10 -11 0 -18 -5 -15 -9z"/>
<path d="M1800 2676 c0 -2 7 -9 15 -16 9 -7 15 -8 15 -2 0 5 -7 12 -15 16 -8
3 -15 4 -15 2z"/>
<path d="M1750 2666 c0 -2 8 -10 18 -17 15 -13 16 -12 3 4 -13 16 -21 21 -21
13z"/>
<path d="M1642 2565 c0 -16 2 -22 5 -12 2 9 2 23 0 30 -3 6 -5 -1 -5 -18z"/>
<path d="M3402 2555 c0 -16 2 -22 5 -12 2 9 2 23 0 30 -3 6 -5 -1 -5 -18z"/>
<path d="M3391 2494 c0 -11 3 -14 6 -6 3 7 2 16 -1 19 -3 4 -6 -2 -5 -13z"/>
<path d="M3371 2414 c0 -11 3 -14 6 -6 3 7 2 16 -1 19 -3 4 -6 -2 -5 -13z"/>
<path d="M3444 2399 c-4 -7 -3 -9 4 -5 5 3 13 0 15 -6 4 -9 6 -10 6 -1 1 17
-16 25 -25 12z"/>
<path d="M3325 2279 c-4 -6 -5 -12 -2 -15 2 -3 7 2 10 11 7 17 1 20 -8 4z"/>
<path d="M3271 2174 c0 -11 3 -14 6 -6 3 7 2 16 -1 19 -3 4 -6 -2 -5 -13z"/>
<path d="M3200 2075 c-7 -9 -11 -17 -9 -20 3 -2 10 5 17 15 14 24 10 26 -8 5z"/>
<path d="M1799 2068 c7 -9 10 -22 6 -28 -14 -23 4 -8 21 18 12 19 13 23 3 15
-12 -10 -18 -10 -29 0 -12 10 -12 9 -1 -5z"/>
<path d="M3299 2043 c-13 -16 -12 -17 4 -4 16 13 21 21 13 21 -2 0 -10 -8 -17
-17z"/>
<path d="M3065 1940 c-10 -11 -14 -20 -9 -20 5 0 15 9 22 20 7 11 11 20 9 20
-2 0 -12 -9 -22 -20z"/>
<path d="M3043 1825 c0 -8 4 -12 9 -9 5 3 6 10 3 15 -9 13 -12 11 -12 -6z"/>
<path d="M2019 1811 c13 -12 28 -21 34 -21 12 0 11 0 -28 24 l-30 17 24 -20z"/>
<path d="M2851 1804 c-18 -8 -31 -17 -28 -20 5 -6 67 23 67 31 0 6 3 7 -39
-11z"/>
<path d="M2065 1780 c-8 -13 9 -20 24 -11 10 6 9 10 -3 14 -8 3 -18 2 -21 -3z"/>
<path d="M3040 1765 c-7 -9 -20 -13 -29 -10 -13 5 -14 4 -3 -7 10 -10 16 -8
34 10 12 12 20 22 16 22 -3 0 -11 -7 -18 -15z"/>
<path d="M2110 1760 c0 -5 8 -6 18 -3 15 6 16 5 2 -13 -14 -17 -14 -18 2 -6 9
8 27 11 40 8 16 -4 13 -1 -7 9 -35 17 -55 19 -55 5z"/>
<path d="M2758 1763 c7 -3 16 -2 19 1 4 3 -2 6 -13 5 -11 0 -14 -3 -6 -6z"/>
<path d="M2691 1749 c-18 -6 -31 -12 -29 -14 5 -5 78 14 78 20 0 6 -8 5 -49
-6z"/>
<path d="M2215 1737 c10 -8 25 -12 33 -10 16 7 14 9 -23 17 -28 7 -29 6 -10
-7z"/>
<path d="M2620 1733 c-14 -3 -29 -9 -35 -15 -13 -12 46 1 60 13 5 5 7 8 5 8
-3 -1 -16 -4 -30 -6z"/>
<path d="M2280 1719 c0 -5 9 -9 20 -9 11 0 20 2 20 4 0 2 -9 6 -20 9 -11 3
-20 1 -20 -4z"/>
<path d="M2373 1713 c20 -2 54 -2 75 0 20 2 3 4 -38 4 -41 0 -58 -2 -37 -4z"/>
<path d="M2518 1713 c12 -2 30 -2 40 0 9 3 -1 5 -23 4 -22 0 -30 -2 -17 -4z"/>
<path d="M2388 1673 c6 -2 10 -9 7 -14 -4 -5 1 -6 10 -2 13 5 14 7 3 14 -7 5
-17 8 -23 8 -5 0 -4 -3 3 -6z"/>
<path d="M2635 1660 c-3 -6 1 -7 9 -4 18 7 21 14 7 14 -6 0 -13 -4 -16 -10z"/>
<path d="M2690 1666 c0 -2 9 -6 20 -9 11 -3 18 -1 14 4 -5 9 -34 13 -34 5z"/>
<path d="M3125 3463 c2 -10 4 -20 4 -22 2 -9 31 23 30 33 0 6 -3 6 -6 -2 -4
-9 -8 -10 -18 -2 -10 9 -13 7 -10 -7z"/>
<path d="M1979 3453 c-13 -16 -12 -17 4 -4 16 13 21 21 13 21 -2 0 -10 -8 -17
-17z"/>
<path d="M1860 3401 c0 -6 4 -13 10 -16 6 -3 7 1 4 9 -7 18 -14 21 -14 7z"/>
<path d="M1897 3397 c3 -6 -2 -16 -12 -24 -11 -7 -14 -13 -8 -13 7 0 15 5 19
11 5 8 9 7 14 -1 5 -8 7 -4 7 12 -1 13 -7 25 -14 25 -7 0 -9 -5 -6 -10z"/>
<path d="M3203 3395 c0 -8 4 -12 9 -9 5 3 6 10 3 15 -9 13 -12 11 -12 -6z"/>
<path d="M1834 3379 c-4 -7 -3 -9 4 -5 5 3 13 0 15 -6 4 -9 6 -10 6 -1 1 17
-16 25 -25 12z"/>
<path d="M3236 3377 c-16 -12 -16 -13 2 -13 10 0 19 6 19 13 0 7 -1 13 -2 13
-1 0 -9 -6 -19 -13z"/>
<path d="M1926 3352 c-3 -4 4 -9 15 -9 23 -2 25 3 4 10 -8 4 -16 3 -19 -1z"/>
<path d="M3320 3325 c7 -9 15 -13 17 -11 7 7 -7 26 -19 26 -6 0 -6 -6 2 -15z"/>
<path d="M1693 3213 c-17 -13 -17 -14 2 -5 11 5 28 8 38 6 11 -1 16 0 13 4
-12 12 -35 10 -53 -5z"/>
<path d="M3444 3161 c0 -16 5 -28 13 -28 9 0 10 4 2 13 -6 7 -8 18 -5 23 4 5
3 12 -2 15 -5 3 -8 -8 -8 -23z"/>
<path d="M1699 3103 c-13 -16 -12 -17 4 -4 9 7 17 15 17 17 0 8 -8 3 -21 -13z"/>
<path d="M3410 3114 c0 -6 7 -19 16 -30 14 -18 14 -18 3 6 -14 31 -19 36 -19
24z"/>
<path d="M1587 3045 c-4 -8 -3 -16 1 -19 4 -3 9 4 9 15 2 23 -3 25 -10 4z"/>
<path d="M1615 2949 c-4 -6 -5 -12 -2 -15 2 -3 7 2 10 11 7 17 1 20 -8 4z"/>
<path d="M3495 2891 c-3 -5 -2 -12 3 -15 5 -3 9 1 9 9 0 17 -3 19 -12 6z"/>
<path d="M3487 2203 c-4 -3 -7 -13 -7 -22 1 -13 3 -13 11 2 11 19 8 33 -4 20z"/>
<path d="M3422 2035 c-15 -32 -15 -35 0 -35 6 0 8 3 5 6 -3 4 -2 15 4 26 6 11
9 22 6 24 -2 2 -9 -7 -15 -21z"/>
<path d="M1656 1991 c-4 -5 -2 -12 4 -16 6 -4 7 -11 4 -17 -4 -6 -2 -8 4 -5
10 7 11 32 0 42 -3 4 -9 2 -12 -4z"/>
<path d="M1690 1906 c0 -2 7 -7 16 -10 8 -3 12 -2 9 4 -6 10 -25 14 -25 6z"/>
<path d="M3213 1745 c0 -8 4 -12 9 -9 5 3 6 10 3 15 -9 13 -12 11 -12 -6z"/>
<path d="M1905 1731 c-3 -5 -2 -12 3 -15 5 -3 9 1 9 9 0 17 -3 19 -12 6z"/>
<path d="M3207 1703 c3 -7 6 -13 8 -13 2 0 5 6 8 13 3 8 -1 14 -8 14 -7 0 -11
-6 -8 -14z"/>
<path d="M1953 1658 c26 -20 33 -22 42 -8 4 6 -1 7 -12 3 -15 -6 -16 -4 -6 8
10 12 7 15 -17 14 l-30 0 23 -17z"/>
<path d="M2618 1483 c7 -3 16 -2 19 1 4 3 -2 6 -13 5 -11 0 -14 -3 -6 -6z"/>
<path d="M1763 3425 c0 -8 4 -12 9 -9 5 3 6 10 3 15 -9 13 -12 11 -12 -6z"/>
<path d="M505 2615 c-16 -15 -25 -36 -25 -55 0 -19 9 -40 25 -55 24 -25 26
-25 215 -25 189 0 191 0 215 25 16 15 25 36 25 55 0 19 -9 40 -25 55 -24 25
-26 25 -215 25 -189 0 -191 0 -215 -25z m411 -23 c18 -23 17 -50 0 -68 -21
-21 -371 -21 -392 0 -26 27 -13 74 24 87 6 2 89 3 184 1 148 -3 173 -5 184
-20z"/>
<path d="M535 2570 c-4 -6 -3 -16 3 -22 6 -6 12 -6 17 2 4 6 3 16 -3 22 -6 6
-12 6 -17 -2z"/>
<path d="M903 2564 c-5 -13 -7 -13 -14 -2 -6 9 -9 9 -9 1 0 -22 19 -24 30 -3
6 11 8 20 5 20 -3 0 -8 -7 -12 -16z"/>
<path d="M4185 2615 c-16 -15 -25 -36 -25 -55 0 -19 9 -40 25 -55 24 -25 26
-25 215 -25 189 0 191 0 215 25 16 15 25 36 25 55 0 19 -9 40 -25 55 -24 25
-26 25 -215 25 -189 0 -191 0 -215 -25z m411 -23 c18 -23 17 -50 0 -68 -21
-21 -371 -21 -392 0 -26 27 -13 74 24 87 6 2 89 3 184 1 148 -3 173 -5 184
-20z"/>
<path d="M4215 2570 c-4 -6 -3 -16 3 -22 6 -6 12 -6 17 2 4 6 3 16 -3 22 -6 6
-12 6 -17 -2z"/>
<path d="M4583 2564 c-5 -13 -7 -13 -14 -2 -6 9 -9 9 -9 1 0 -22 19 -24 30 -3
6 11 8 20 5 20 -3 0 -8 -7 -12 -16z"/>
<path d="M1045 1777 c-22 -13 -121 -70 -220 -127 -99 -56 -188 -112 -197 -122
-40 -45 -2 -128 57 -128 26 0 429 225 473 263 33 30 31 89 -4 116 -34 27 -60
26 -109 -2z m99 -30 c18 -24 18 -29 5 -53 -16 -31 -32 -39 -56 -28 -25 11 -53
13 -47 3 2 -4 11 -6 18 -3 7 3 19 -3 27 -12 12 -15 12 -16 -8 -10 -13 4 -24 2
-29 -5 -4 -8 -3 -9 4 -5 7 4 12 5 12 2 0 -3 -31 -21 -70 -39 -38 -19 -66 -38
-62 -42 4 -4 -4 -2 -18 5 -21 10 -23 10 -13 -1 11 -10 6 -16 -24 -30 -21 -10
-42 -15 -47 -12 -5 4 -6 1 -2 -5 3 -6 -3 -13 -14 -17 -11 -3 -20 -10 -20 -15
0 -5 -7 -6 -17 -3 -12 5 -14 3 -8 -7 5 -8 3 -11 -6 -8 -7 2 -22 -3 -32 -13
-27 -25 -53 -29 -76 -12 -33 23 -23 107 10 88 8 -5 11 -5 7 0 -7 8 16 28 61
53 19 11 22 11 15 0 -4 -7 4 -3 18 10 17 15 31 20 43 16 11 -5 16 -4 12 3 -7
11 36 46 71 57 12 4 22 12 22 18 0 6 3 8 6 5 4 -4 19 2 34 13 16 11 33 20 39
20 6 0 11 4 11 8 0 5 18 15 40 22 21 7 37 16 35 20 -2 4 6 6 17 5 12 -1 31
-14 42 -28z"/>
<path d="M856 1631 c-12 -13 -14 -21 -6 -26 6 -3 10 -3 9 2 -3 20 2 27 11 13
7 -12 9 -10 7 8 -2 27 0 26 -21 3z"/>
<path d="M701 1546 c-15 -18 5 -34 22 -17 9 9 7 11 -8 6 -20 -7 -20 -6 -1 9
11 9 15 16 9 16 -6 0 -16 -6 -22 -14z"/>
<path d="M3966 1779 c-20 -16 -26 -29 -26 -59 0 -32 6 -43 33 -63 71 -53 438
-257 462 -257 59 0 96 83 58 128 -25 29 -453 272 -479 272 -12 0 -33 -9 -48
-21z m68 -11 c-3 -4 2 -8 10 -8 8 0 25 -10 37 -22 12 -13 19 -17 15 -11 -5 9
-2 11 8 7 9 -3 16 -11 16 -17 0 -6 3 -8 6 -4 3 3 27 -8 52 -24 25 -16 52 -29
58 -29 8 0 11 -9 9 -21 -3 -16 -1 -18 9 -10 9 8 26 1 65 -24 28 -19 49 -30 45
-24 -3 6 3 5 14 -2 19 -12 19 -14 4 -26 -15 -11 -14 -12 9 -4 36 13 89 -28 89
-69 0 -32 -46 -73 -58 -53 -4 6 -17 13 -29 17 -13 4 -23 11 -23 16 0 5 -7 6
-17 3 -12 -5 -14 -3 -8 7 6 10 4 12 -8 7 -10 -3 -17 -3 -17 2 0 5 -18 16 -40
25 -22 9 -40 20 -40 26 0 5 -8 10 -19 10 -10 0 -24 6 -30 14 -7 8 -23 17 -37
20 -15 4 -22 11 -18 18 5 8 2 9 -9 5 -10 -3 -17 -3 -17 2 0 4 -18 15 -41 24
-22 9 -39 20 -36 24 3 4 -2 15 -11 23 -14 13 -15 12 -9 -4 6 -16 5 -17 -8 -6
-9 7 -14 19 -11 27 4 9 1 11 -5 7 -10 -6 -28 11 -29 27 0 17 40 55 58 55 11 0
18 -4 16 -8z"/>
<path d="M4041 1677 c2 -2 11 -8 20 -15 12 -9 16 -9 16 1 0 7 -9 14 -20 14
-11 1 -18 1 -16 0z"/>
<path d="M4156 1592 c-3 -4 4 -9 15 -9 23 -2 25 3 4 10 -8 4 -16 3 -19 -1z"/>
<path d="M4405 1541 c-3 -5 -2 -12 3 -15 5 -3 9 1 9 9 0 17 -3 19 -12 6z"/>
<path d="M1667 1163 c-32 -37 -179 -299 -184 -329 -11 -65 75 -110 125 -66 29
24 192 312 192 338 0 12 -9 33 -21 48 -25 32 -86 37 -112 9z m78 -13 c4 -6 11
-7 17 -4 6 4 8 2 4 -4 -3 -6 -2 -13 3 -16 5 -3 2 -26 -7 -50 -9 -25 -20 -42
-24 -40 -4 3 -5 -2 -1 -12 5 -13 2 -15 -15 -10 -11 4 -23 2 -27 -3 -3 -7 0 -8
9 -5 9 3 16 1 16 -5 0 -6 -5 -11 -11 -11 -5 0 -8 -4 -4 -9 3 -5 1 -12 -5 -16
-6 -4 -8 -11 -5 -16 4 -5 2 -9 -3 -9 -9 0 -37 -50 -34 -62 1 -4 -9 -15 -21
-25 -13 -10 -22 -24 -19 -32 3 -9 0 -11 -8 -6 -10 6 -12 4 -7 -8 7 -17 -15
-33 -43 -32 -16 1 -60 24 -46 25 5 0 3 7 -4 15 -9 11 -7 22 11 54 12 22 27 37
32 34 6 -3 7 -1 3 5 -9 14 25 83 37 75 6 -3 7 -1 3 5 -4 6 1 20 11 32 10 11
19 25 19 30 1 6 2 13 3 17 0 3 11 -2 24 -13 l22 -19 -20 23 c-16 19 -17 25 -5
32 8 5 18 6 23 3 5 -3 4 4 -2 15 -9 16 -7 23 12 35 26 19 53 21 62 7z"/>
<path d="M1697 1138 c-3 -10 3 -14 23 -14 16 0 27 3 24 8 -3 5 -10 5 -16 2 -6
-4 -14 -1 -18 6 -5 9 -9 8 -13 -2z"/>
<path d="M1578 793 c7 -3 16 -2 19 1 4 3 -2 6 -13 5 -11 0 -14 -3 -6 -6z"/>
<path d="M3341 1154 c-12 -15 -21 -36 -21 -48 0 -26 163 -314 192 -338 29 -26
74 -23 103 7 41 40 36 58 -73 245 -86 148 -96 160 -142 160 -30 0 -43 -6 -59
-26z m97 -13 c12 -6 20 -16 16 -22 -3 -5 6 -22 20 -36 14 -14 24 -29 21 -33
-3 -4 2 -13 11 -21 18 -15 41 -54 26 -45 -6 3 -9 -2 -7 -11 1 -10 8 -17 14
-16 14 4 34 -34 25 -49 -4 -6 -3 -8 3 -5 15 9 44 -48 41 -82 -3 -38 -36 -56
-73 -39 -15 7 -24 17 -21 25 3 8 1 11 -4 8 -14 -8 -13 8 1 22 7 7 8 17 2 28
-9 16 -10 16 -16 1 -4 -10 -3 -15 3 -11 6 3 10 1 10 -4 0 -32 -39 5 -60 57 -7
17 -17 32 -22 32 -5 0 -7 4 -3 9 3 5 1 12 -5 16 -6 4 -8 11 -5 16 4 5 1 9 -5
9 -7 0 -10 7 -7 15 4 8 1 17 -5 21 -7 4 -8 3 -4 -4 4 -7 3 -12 -2 -12 -5 0
-18 24 -29 54 -20 54 -20 55 -1 74 21 21 42 22 76 3z"/>
<path d="M3375 1130 c-2 -3 9 -6 25 -6 17 0 27 2 25 5 -8 7 -45 9 -50 1z"/>
<path d="M2505 935 l-25 -24 0 -271 0 -271 25 -24 c15 -16 36 -25 55 -25 19 0
40 9 55 25 l25 24 0 271 0 271 -25 24 c-15 16 -36 25 -55 25 -19 0 -40 -9 -55
-25z m92 -24 c8 -13 12 -97 13 -275 1 -275 -1 -286 -50 -286 -48 0 -50 11 -50
290 0 194 3 264 13 275 18 20 60 18 74 -4z"/>
<path d="M2536 892 c-3 -4 4 -9 15 -9 23 -2 25 3 4 10 -8 4 -16 3 -19 -1z"/>
<path d="M2540 385 c5 -7 6 -16 2 -20 -4 -5 -1 -5 6 -1 7 4 9 12 6 18 -5 7 -1
9 9 5 9 -3 19 -3 21 2 3 4 -8 7 -24 7 -21 0 -27 -3 -20 -11z"/>
<path d="M1640 766 c0 -2 8 -10 18 -17 15 -13 16 -12 3 4 -13 16 -21 21 -21
13z"/>
<path d="M3459 753 c-13 -16 -12 -17 4 -4 9 7 17 15 17 17 0 8 -8 3 -21 -13z"/>
<path d="M1446 742 c-3 -5 1 -9 9 -9 8 0 12 4 9 9 -3 4 -7 8 -9 8 -2 0 -6 -4
-9 -8z"/>
</g>
</svg>
